<?xml version="1.0" standalone="no"?>
<!DOCTYPE svg PUBLIC "-//W3C//DTD SVG 20010904//EN" "http://www.w3.org/TR/2001/REC-SVG-20010904/DTD/svg10.dtd">
<svg version="1.0" xmlns="http://www.w3.org/2000/svg" width="16.000000pt" height="16.000000pt"
    viewBox="0 0 240.000000 240.000000" preserveAspectRatio="xMidYMid meet">
    <g transform="translate(0.000000,240.000000) scale(0.100000,-0.100000)" fill="#2e8555" stroke="none">
        <path d="M1524 1710 c-76 -17 -177 -114 -281 -267 -31 -45 -59 -83 -62 -83 -3
1 -27 31 -53 68 -97 137 -224 244 -322 272 -66 18 -171 9 -231 -20 -66 -32
-143 -110 -187 -190 -36 -65 -86 -205 -77 -214 3 -3 24 2 48 10 38 13 50 13
104 -1 34 -9 63 -18 65 -20 3 -3 22 31 43 74 43 87 82 127 134 137 70 13 167
-63 297 -233 l70 -92 -46 -70 c-99 -148 -226 -221 -335 -191 -52 14 -116 70
-133 116 l-12 34 -113 0 c-76 0 -113 -4 -113 -11 0 -6 16 -41 35 -78 95 -180
238 -269 415 -259 60 4 87 10 122 31 61 35 133 117 203 227 32 50 61 88 65 83
3 -4 36 -46 72 -93 142 -184 232 -242 378 -244 62 -1 85 4 133 26 70 33 149
111 200 198 36 63 97 231 97 269 0 18 -4 18 -37 9 -21 -6 -72 -11 -114 -12
l-77 -1 -11 -50 c-37 -165 -128 -242 -235 -201 -55 21 -161 117 -242 220 l-63
79 50 73 c97 140 202 214 307 214 l52 0 0 90 c0 64 -4 92 -12 94 -30 10 -106
13 -134 6z" />
        <path d="M1880 1683 c-68 -26 -117 -107 -106 -177 24 -148 224 -187 299 -58
27 45 26 121 -2 166 -35 56 -132 91 -191 69z" />
    </g>
</svg>